# xmcd
#
# Track frame offsets: 
#        150
#        15457
#        33732
#        49900
#        67437
#        89735
#        100550
#        112480
#        131832
#        149425
#        164725
#        196332
#
# Disc length: 2763 seconds
#
# Revision: 3
# Processed by: cddbd v1.5.2PL0 Copyright (c) Steve Scherf et al.
# Submitted via: ExactAudioCopy v0.95b2
#
DISCID=c10ac90c
DTITLE=Jay Hooks - Jay Hooks
DYEAR=2000
DGENRE=
TTITLE0=Easy Way Out
TTITLE1=Straight Wiskey
TTITLE2=Where You Goin'
TTITLE3=Smothered
TTITLE4=If Life Don't Kill You (Lovin' Will)
TTITLE5=When Your Lover Don't Love You
TTITLE6=Sling Shot
TTITLE7=Am I Supposed to Cry?
TTITLE8=Voodoo Woman
TTITLE9=Hell on Heels
TTITLE10=Last Time I Left Memphis
TTITLE11=Take It to the House
EXTD=
EXTT0=
EXTT1=
EXTT2=
EXTT3=
EXTT4=
EXTT5=
EXTT6=
EXTT7=
EXTT8=
EXTT9=
EXTT10=
EXTT11=
PLAYORDER=
